/* XPM */
static const char * const SelectionRightXpm[] = {
"32 32 4 1",
" 	c #FF0000",
".	c #000000",
"+	c #B4B4B4",
"@	c #FFFFFF",
"                                ",
"                                ",
"                                ",
"                                ",
"                         .      ",
"                        .@.     ",
"                        .@.     ",
"                        .@.     ",
"                ..      .@.     ",
"                .+.     .@.     ",
"                .@+.    .@.     ",
"                .@@+.   .@.     ",
"                .@@@+.  .@.     ",
"      ...........@@@@+. .@.     ",
"      .@@@@@@@@@@@@@@@+..@.     ",
"      .@@@@@@@@@@@@@@@@+.@.     ",
"      .@@@@@@@@@@@@@@@@@.@.     ",
"      .@@@@@@@@@@@@@@@@+.@.     ",
"      .@@@@@@@@@@@@@@@+..@.     ",
"      ...........@@@@+. .@.     ",
"                .@@@+.  .@.     ",
"                .@@+.   .@.     ",
"                .@+.    .@.     ",
"                .+.     .@.     ",
"                ..      .@.     ",
"                        .@.     ",
"                        .@.     ",
"                        .@.     ",
"                         .      ",
"                                ",
"                                ",
"                                "};
