/* XPM */
static const char * const _default_instrument_xpm[] = {
"48 48 211 2",
"  	c #969696",
". 	c #A4A4A4",
"+ 	c #C3C3C3",
"@ 	c #DADADA",
"# 	c #E8E8E8",
"$ 	c #F4F4F4",
"% 	c #FAFAFA",
"& 	c #FDFDFD",
"* 	c #A1A1A1",
"= 	c #CCCCCC",
"- 	c #EEEEEE",
"; 	c #FFFFFF",
"> 	c #A5A5A5",
", 	c #D9D9D9",
"' 	c #FCFCFC",
") 	c #999999",
"! 	c #CDCDCD",
"~ 	c #FBFBFB",
"{ 	c #D3D3D3",
"] 	c #9A9A9A",
"^ 	c #ABABAB",
"/ 	c #F0F0F0",
"( 	c #C0C0C0",
"_ 	c #C6C6C6",
": 	c #FEFEFE",
"< 	c #CACACA",
"[ 	c #C9C9C9",
"} 	c #AAAAAA",
"| 	c #ACACAC",
"1 	c #EFEFEF",
"2 	c #CFCFCF",
"3 	c #FFFFFC",
"4 	c #F0DAC0",
"5 	c #A89482",
"6 	c #73675D",
"7 	c #56504D",
"8 	c #4B4C4F",
"9 	c #52575C",
"0 	c #646F7A",
"a 	c #8592A1",
"b 	c #B2C5D7",
"c 	c #E9F7FE",
"d 	c #F6DAAD",
"e 	c #794A24",
"f 	c #0C0201",
"g 	c #000000",
"h 	c #000001",
"i 	c #020A1A",
"j 	c #324E83",
"k 	c #BEEFFE",
"l 	c #FFFFFE",
"m 	c #EFC37F",
"n 	c #3A1102",
"o 	c #000105",
"p 	c #0C151C",
"q 	c #212322",
"r 	c #1D1711",
"s 	c #0A0401",
"t 	c #000640",
"u 	c #93E2FD",
"v 	c #CBCBCB",
"w 	c #FEEBB0",
"x 	c #5E1C03",
"y 	c #051A3F",
"z 	c #6D96B9",
"A 	c #D4EAF8",
"B 	c #FEFFFF",
"C 	c #FDF6E9",
"D 	c #D8C5AF",
"E 	c #967B5F",
"F 	c #42250E",
"G 	c #030640",
"H 	c #D88837",
"I 	c #060100",
"J 	c #031B56",
"K 	c #A5E1FB",
"L 	c #FFFDF1",
"M 	c #D8B9B8",
"N 	c #CFF1FE",
"O 	c #A3A3A3",
"P 	c #FFFEE5",
"Q 	c #964307",
"R 	c #010000",
"S 	c #000005",
"T 	c #3688D8",
"U 	c #FCFFFF",
"V 	c #FFFBC9",
"W 	c #772704",
"X 	c #000110",
"Y 	c #5EB3F8",
"Z 	c #FFFBCA",
"` 	c #782804",
" .	c #000108",
"..	c #4A9FEC",
"+.	c #FFFEE9",
"@.	c #9C4809",
"#.	c #0C3D8A",
"$.	c #D4F8FF",
"%.	c #FFFFFD",
"&.	c #E29846",
"*.	c #0C0100",
"=.	c #000104",
"-.	c #173B68",
";.	c #91B3D1",
">.	c #E9F8FF",
",.	c #F9F9F9",
"'.	c #FFF6CC",
").	c #83380D",
"!.	c #030B19",
"~.	c #2B3D4E",
"{.	c #607183",
"].	c #94A6B8",
"^.	c #CBDFF1",
"/.	c #FBFFFF",
"(.	c #FDEAC1",
"_.	c #854A1F",
":.	c #080100",
"<.	c #122845",
"[.	c #6588AF",
"}.	c #D5F1FE",
"|.	c #FFFFF4",
"1.	c #DDB994",
"2.	c #715134",
"3.	c #1B0A02",
"4.	c #061A43",
"5.	c #7EBBE7",
"6.	c #FEF7EA",
"7.	c #D7C4B2",
"8.	c #A1907F",
"9.	c #6E5D4C",
"0.	c #382311",
"a.	c #050100",
"b.	c #010A30",
"c.	c #77C2F1",
"d.	c #F3F3F3",
"e.	c #FFFFFA",
"f.	c #EBD1AE",
"g.	c #86572B",
"h.	c #0E0200",
"i.	c #062E7E",
"j.	c #CEFAFF",
"k.	c #FFFEF1",
"l.	c #C47831",
"m.	c #000322",
"n.	c #72C4FA",
"o.	c #FFF0AB",
"p.	c #571101",
"q.	c #000006",
"r.	c #4094E3",
"s.	c #FDFFFF",
"t.	c #C2C2C2",
"u.	c #FFFCD7",
"v.	c #863405",
"w.	c #3183D4",
"x.	c #FFFBCE",
"y.	c #7D2C04",
"z.	c #3C8FDF",
"A.	c #EDEDED",
"B.	c #FFFFF7",
"C.	c #EDEDF4",
"D.	c #FBD484",
"E.	c #340601",
"F.	c #000218",
"G.	c #65B8F8",
"H.	c #FFFCD9",
"I.	c #8A3C1B",
"J.	c #345D86",
"K.	c #ACCEE9",
"L.	c #F9FFFF",
"M.	c #FBE6B9",
"N.	c #74350D",
"O.	c #031C66",
"P.	c #B9F4FF",
"Q.	c #893705",
"R.	c #000106",
"S.	c #152E4A",
"T.	c #62778B",
"U.	c #9EB0BE",
"V.	c #C8CFD6",
"W.	c #DCDFDF",
"X.	c #DCD7CF",
"Y.	c #C4B6A3",
"Z.	c #8D714F",
"`.	c #2C1003",
" +	c #000216",
".+	c #4E9FE0",
"++	c #FFFCDA",
"@+	c #8A3805",
"#+	c #01061B",
"$+	c #4889C7",
"%+	c #EFFEFF",
"&+	c #D8D8D8",
"*+	c #F9EAD2",
"=+	c #B69B7F",
"-+	c #654E39",
";+	c #241106",
">+	c #020B1D",
",+	c #38587C",
"'+	c #A4CEED",
")+	c #FFFDF5",
"!+	c #E9DACD",
"~+	c #C0B3A8",
"{+	c #A09B96",
"]+	c #928F8E",
"^+	c #8F9297",
"/+	c #9EA6B0",
"(+	c #BCCADA",
"_+	c #EBF8FE",
":+	c #BFBFBF",
"<+	c #C5C5C5",
"[+	c #989898",
"                                  . + @ # $ % & & % $ # @ + .                                   ",
"                            * = - ; ; ; ; ; ; ; ; ; ; ; ; ; ; - = *                             ",
"                        > , ' ; ; ; ; ; ; ; ; ; ; ; ; ; ; ; ; ; ; ' , >                         ",
"                    ) ! ~ ; ; ; ; ; ; ; ; ; ; ; ; ; ; ; ; ; ; ; ; ; ; ' { ]                     ",
"                  ^ / ; ; ; ; ; ; ; ; ; ; ; ; ; ; ; ; ; ; ; ; ; ; ; ; ; ; / ^                   ",
"                ( ~ ; ; ; ; ; ; ; ; ; ; ; ; ; ; ; ; ; ; ; ; ; ; ; ; ; ; ; ; ~ (                 ",
"              _ : ; ; ; ; ; ; ; ; ; ; ; ; ; ; ; ; ; ; ; ; ; ; ; ; ; ; ; ; ; ; : <               ",
"            [ ; ; ; ; ; ; ; ; ; ; ; ; ; ; ; ; ; ; ; ; ; ; ; ; ; ; ; ; ; ; ; ; ; ; =             ",
"          ( : ; ; ; ; ; ; ; ; ; ; ; ; ; ; ; ; ; ; ; ; ; ; ; ; ; ; ; ; ; ; ; ; ; ; : (           ",
"        } ~ ; ; ; ; ; ; ; ; ; ; ; ; ; ; ; ; ; ; ; ; ; ; ; ; ; ; ; ; ; ; ; ; ; ; ; ; ~ |         ",
"      ) 1 ; ; ; ; ; ; ; ; ; ; ; ; ; ; ; ; ; ; ; ; ; ; ; ; ; ; ; ; ; ; ; ; ; ; ; ; ; ; / )       ",
"      2 ; ; ; ; ; ; ; ; ; ; ; ; ; ; ; ; ; ; ; ; ; ; ; ; ; ; ; ; ; ; ; ; ; ; ; ; ; ; ; ; 2       ",
"    > ' ; ; ; ; ; ; ; ; ; ; ; ; ; ; ; ; 3 4 5 6 7 8 9 0 a b c ; ; ; ; ; ; ; ; ; ; ; ; ; ~ >     ",
"    , ; ; ; ; ; ; ; ; ; ; ; ; ; ; ; ; d e f g g g g g g g h i j k ; ; ; ; ; ; ; ; ; ; ; ; ,     ",
"  * ' ; ; ; ; ; ; ; ; ; ; ; ; ; ; l m n g g g o p q r s g g g t u ; ; ; ; ; ; ; ; ; ; ; ; ' *   ",
"  v ; ; ; ; ; ; ; ; ; ; ; ; ; ; ; w x g h y z A B ; ; C D E F G u ; ; ; ; ; ; ; ; ; ; ; ; ; v   ",
"  - ; ; ; ; ; ; ; ; ; ; ; ; ; ; 3 H I g J K ; ; ; ; ; ; ; ; L M N ; ; ; ; ; ; ; ; ; ; ; ; ; -   ",
"O ; ; ; ; ; ; ; ; ; ; ; ; ; ; ; P Q R S T U ; ; ; ; ; ; ; ; ; ; ; ; ; ; ; ; ; ; ; ; ; ; ; ; ; . ",
"+ ; ; ; ; ; ; ; ; ; ; ; ; ; ; ; V W g X Y ; ; ; ; ; ; ; ; ; ; ; ; ; ; ; ; ; ; ; ; ; ; ; ; ; ; + ",
", ; ; ; ; ; ; ; ; ; ; ; ; ; ; ; Z ` g  ...B ; ; ; ; ; ; ; ; ; ; ; ; ; ; ; ; ; ; ; ; ; ; ; ; ; , ",
"# ; ; ; ; ; ; ; ; ; ; ; ; ; ; ; +.@.R h #.$.; ; ; ; ; ; ; ; ; ; ; ; ; ; ; ; ; ; ; ; ; ; ; ; ; # ",
"$ ; ; ; ; ; ; ; ; ; ; ; ; ; ; ; %.&.*.g =.-.;.>.; ; ; ; ; ; ; ; ; ; ; ; ; ; ; ; ; ; ; ; ; ; ; $ ",
",.; ; ; ; ; ; ; ; ; ; ; ; ; ; ; ; '.).R g g h !.~.{.].^./.; ; ; ; ; ; ; ; ; ; ; ; ; ; ; ; ; ; ,.",
"& ; ; ; ; ; ; ; ; ; ; ; ; ; ; ; ; ; (._.:.g g g g g g o <.[.}.; ; ; ; ; ; ; ; ; ; ; ; ; ; ; ; & ",
"& ; ; ; ; ; ; ; ; ; ; ; ; ; ; ; ; ; ; |.1.2.3.R g g g g g h 4.5.U ; ; ; ; ; ; ; ; ; ; ; ; ; ; & ",
",.; ; ; ; ; ; ; ; ; ; ; ; ; ; ; ; ; ; ; ; ; 6.7.8.9.0.a.g g g b.c.B ; ; ; ; ; ; ; ; ; ; ; ; ; ,.",
"d.; ; ; ; ; ; ; ; ; ; ; ; ; ; ; ; ; ; ; ; ; ; ; ; ; e.f.g.h.g h i.j.; ; ; ; ; ; ; ; ; ; ; ; ; $ ",
"# ; ; ; ; ; ; ; ; ; ; ; ; ; ; ; ; ; ; ; ; ; ; ; ; ; ; ; k.l.:.g m.n.; ; ; ; ; ; ; ; ; ; ; ; ; # ",
", ; ; ; ; ; ; ; ; ; ; ; ; ; ; ; ; ; ; ; ; ; ; ; ; ; ; ; ; o.p.g q.r.s.; ; ; ; ; ; ; ; ; ; ; ; , ",
"t.; ; ; ; ; ; ; ; ; ; ; ; ; ; ; ; ; ; ; ; ; ; ; ; ; ; ; ; u.v.g S w.U ; ; ; ; ; ; ; ; ; ; ; ; t.",
"O ; ; ; ; ; ; ; ; ; ; ; ; ; ; ; ; ; ; ; ; ; ; ; ; ; ; ; ; x.y.g q.z.s.; ; ; ; ; ; ; ; ; ; ; ; O ",
"  A.; ; ; ; ; ; ; ; ; ; ; ; ; ; B.C.B ; ; ; ; ; ; ; ; ; ; D.E.g F.G.; ; ; ; ; ; ; ; ; ; ; ; A.  ",
"  v ; ; ; ; ; ; ; ; ; ; ; ; ; ; H.I.J.K.L.; ; ; ; ; ; ; M.N.R g O.P.; ; ; ; ; ; ; ; ; ; ; ; v   ",
"  * ' ; ; ; ; ; ; ; ; ; ; ; ; ; H.Q.g R.S.T.U.V.W.X.Y.Z.`.R g  +.+s.; ; ; ; ; ; ; ; ; ; ; ' *   ",
"    , ; ; ; ; ; ; ; ; ; ; ; ; ; ++@+g g g g g g g g g g g g #+$+%+; ; ; ; ; ; ; ; ; ; ; ; &+    ",
"    > ~ ; ; ; ; ; ; ; ; ; ; ; ; ; *+=+-+;+R g g g g g h >+,+'+s.; ; ; ; ; ; ; ; ; ; ; ; ~ .     ",
"      2 ; ; ; ; ; ; ; ; ; ; ; ; ; ; ; ; )+!+~+{+]+^+/+(+_+; ; ; ; ; ; ; ; ; ; ; ; ; ; ; 2       ",
"      ) 1 ; ; ; ; ; ; ; ; ; ; ; ; ; ; ; ; ; ; ; ; ; ; ; ; ; ; ; ; ; ; ; ; ; ; ; ; ; ; 1 )       ",
"        } ~ ; ; ; ; ; ; ; ; ; ; ; ; ; ; ; ; ; ; ; ; ; ; ; ; ; ; ; ; ; ; ; ; ; ; ; ; ~ |         ",
"          :+: ; ; ; ; ; ; ; ; ; ; ; ; ; ; ; ; ; ; ; ; ; ; ; ; ; ; ; ; ; ; ; ; ; ; : :+          ",
"            <+; ; ; ; ; ; ; ; ; ; ; ; ; ; ; ; ; ; ; ; ; ; ; ; ; ; ; ; ; ; ; ; ; ; =             ",
"              _ : ; ; ; ; ; ; ; ; ; ; ; ; ; ; ; ; ; ; ; ; ; ; ; ; ; ; ; ; ; ; : <               ",
"                :+~ ; ; ; ; ; ; ; ; ; ; ; ; ; ; ; ; ; ; ; ; ; ; ; ; ; ; ; ; ~ :+                ",
"                  ^ 1 ; ; ; ; ; ; ; ; ; ; ; ; ; ; ; ; ; ; ; ; ; ; ; ; ; ; 1 ^                   ",
"                    [+! ~ ; ; ; ; ; ; ; ; ; ; ; ; ; ; ; ; ; ; ; ; ; ; ' { ]                     ",
"                        . , ' ; ; ; ; ; ; ; ; ; ; ; ; ; ; ; ; ; ; ' , .                         ",
"                            * v - ; ; ; ; ; ; ; ; ; ; ; ; ; ; - = *                             ",
"                                  O + , # d.% & : % d.# , + O                                   "};
