/* XPM */
static char * tenacity_xpm[] = {
"48 48 162 2",
"  	c None",
". 	c #FFFFFF",
"+ 	c #FFFFFE",
"@ 	c #F3DEC3",
"# 	c #AB9887",
"$ 	c #75685F",
"% 	c #59544F",
"& 	c #4C4B4E",
"* 	c #52565B",
"= 	c #636E79",
"- 	c #8491A0",
"; 	c #B2C4D6",
"> 	c #E9F7FE",
", 	c #F8DFB4",
"' 	c #7C4D25",
") 	c #0D0100",
"! 	c #000000",
"~ 	c #000919",
"{ 	c #314A81",
"] 	c #BFF2FF",
"^ 	c #F3CA85",
"/ 	c #3B0F00",
"( 	c #000004",
"_ 	c #0C151C",
": 	c #212322",
"< 	c #1D1711",
"[ 	c #090300",
"} 	c #00003B",
"| 	c #93E7FF",
"1 	c #FFF3B9",
"2 	c #611A00",
"3 	c #03183C",
"4 	c #6F97B9",
"5 	c #D5EBF8",
"6 	c #FEFFFF",
"7 	c #FEF6E9",
"8 	c #D7C5B0",
"9 	c #957A5F",
"0 	c #41240D",
"a 	c #01003B",
"b 	c #E08D39",
"c 	c #010000",
"d 	c #00154F",
"e 	c #A4E2FC",
"f 	c #FFFEF1",
"g 	c #D8B5B4",
"h 	c #CEF3FF",
"i 	c #FFFFEE",
"j 	c #974301",
"k 	c #3084D8",
"l 	c #FFFFD1",
"m 	c #792500",
"n 	c #5CB0FF",
"o 	c #FFFFD2",
"p 	c #7A2600",
"q 	c #4094E8",
"r 	c #FFFFF2",
"s 	c #9E4A04",
"t 	c #062F7D",
"u 	c #CFF9FF",
"v 	c #E89D49",
"w 	c #080000",
"x 	c #000001",
"y 	c #143765",
"z 	c #8FB1CE",
"A 	c #E8F8FF",
"B 	c #FFFAD3",
"C 	c #86370B",
"D 	c #010917",
"E 	c #2A3C4D",
"F 	c #607182",
"G 	c #94A6B9",
"H 	c #CEE2F3",
"I 	c #FDFFFF",
"J 	c #FFEDC6",
"K 	c #884C1F",
"L 	c #060000",
"M 	c #122A48",
"N 	c #688AB0",
"O 	c #D9F4FF",
"P 	c #FFFFF8",
"Q 	c #E0BD97",
"R 	c #735437",
"S 	c #1B0A01",
"T 	c #051943",
"U 	c #83C1EB",
"V 	c #FFF9ED",
"W 	c #D9C5B2",
"X 	c #A08F7E",
"Y 	c #6D5D4A",
"Z 	c #36210F",
"` 	c #030000",
" .	c #00072E",
"..	c #7BC8F5",
"+.	c #FFFFFA",
"@.	c #EACFAD",
"#.	c #845327",
"$.	c #090000",
"%.	c #022E81",
"&.	c #D6FEFF",
"*.	c #FFFFF3",
"=.	c #C5752E",
"-.	c #040000",
";.	c #00001F",
">.	c #77CBFF",
",.	c #FFF6AC",
"'.	c #540A00",
").	c #4397EB",
"!.	c #FFFFDC",
"~.	c #843000",
"{.	c #3185D9",
"].	c #FFFFCF",
"^.	c #772300",
"/.	c #4195E9",
"(.	c #FFFFF7",
"_.	c #ECEBF3",
":.	c #FDD480",
"<.	c #2C0000",
"[.	c #000016",
"}.	c #6CC0FE",
"|.	c #FFFFDF",
"1.	c #873714",
"2.	c #345D86",
"3.	c #ADCFE9",
"4.	c #FAFFFF",
"5.	c #FCE7B8",
"6.	c #6D2F09",
"7.	c #001969",
"8.	c #C1FBFF",
"9.	c #873300",
"0.	c #142D49",
"a.	c #63778A",
"b.	c #9EB0BE",
"c.	c #C8CFD5",
"d.	c #DCDFDF",
"e.	c #DCD7CF",
"f.	c #C4B5A4",
"g.	c #8C7150",
"h.	c #2A0E01",
"i.	c #000013",
"j.	c #54A7E8",
"k.	c #FFFFE0",
"l.	c #883400",
"m.	c #00051A",
"n.	c #4C91CF",
"o.	c #F6FFFF",
"p.	c #F9EBD2",
"q.	c #B59A7F",
"r.	c #654E38",
"s.	c #231105",
"t.	c #010C20",
"u.	c #3E5C7E",
"v.	c #A9D4F2",
"w.	c #FFFDF6",
"x.	c #E8DACC",
"y.	c #BEB2A8",
"z.	c #9F9A95",
"A.	c #918F90",
"B.	c #93979C",
"C.	c #A1A7B2",
"D.	c #C0CFDE",
"E.	c #EFF9FF",
"                                      . . . . . . . . . .                                       ",
"                                . . . . . . . . . . . . . . . .                                 ",
"                          . . . . . . . . . . . . . . . . . . . . . .                           ",
"                        . . . . . . . . . . . . . . . . . . . . . . . . .                       ",
"                    . . . . . . . . . . . . . . . . . . . . . . . . . . . .                     ",
"                  . . . . . . . . . . . . . . . . . . . . . . . . . . . . . .                   ",
"                . . . . . . . . . . . . . . . . . . . . . . . . . . . . . . . .                 ",
"              . . . . . . . . . . . . . . . . . . . . . . . . . . . . . . . . . .               ",
"            . . . . . . . . . . . . . . . . . . . . . . . . . . . . . . . . . . . .             ",
"          . . . . . . . . . . . . . . . . . . . . . . . . . . . . . . . . . . . . . .           ",
"        . . . . . . . . . . . . . . . . . . . . . . . . . . . . . . . . . . . . . . . .         ",
"        . . . . . . . . . . . . . . . . . . . . . . . . . . . . . . . . . . . . . . . .         ",
"      . . . . . . . . . . . . . . . . . + @ # $ % & * = - ; > . . . . . . . . . . . . . .       ",
"    . . . . . . . . . . . . . . . . . , ' ) ! ! ! ! ! ! ! ! ~ { ] . . . . . . . . . . . . .     ",
"    . . . . . . . . . . . . . . . . ^ / ! ! ! ( _ : < [ ! ! ! } | . . . . . . . . . . . . .     ",
"    . . . . . . . . . . . . . . . 1 2 ! ! 3 4 5 6 . . 7 8 9 0 a | . . . . . . . . . . . . .     ",
"  . . . . . . . . . . . . . . . . b c ! d e . . . . . . . . f g h . . . . . . . . . . . . . .   ",
"  . . . . . . . . . . . . . . . i j ! ! k . . . . . . . . . . . . . . . . . . . . . . . . . .   ",
"  . . . . . . . . . . . . . . . l m ! ( n . . . . . . . . . . . . . . . . . . . . . . . . . .   ",
". . . . . . . . . . . . . . . . o p ! ! q . . . . . . . . . . . . . . . . . . . . . . . . . . . ",
". . . . . . . . . . . . . . . . r s ! ! t u . . . . . . . . . . . . . . . . . . . . . . . . . . ",
". . . . . . . . . . . . . . . . . v w ! x y z A . . . . . . . . . . . . . . . . . . . . . . . . ",
". . . . . . . . . . . . . . . . . B C ! ! ! ! D E F G H I . . . . . . . . . . . . . . . . . . . ",
". . . . . . . . . . . . . . . . . . J K L ! ! ! ! ! ! ( M N O . . . . . . . . . . . . . . . . . ",
". . . . . . . . . . . . . . . . . . . P Q R S ! ! ! ! ! ! ! T U . . . . . . . . . . . . . . . . ",
". . . . . . . . . . . . . . . . . . . . . . V W X Y Z ` ! ! !  .... . . . . . . . . . . . . . . ",
". . . . . . . . . . . . . . . . . . . . . . . . . . +.@.#.$.! ! %.&.. . . . . . . . . . . . . . ",
". . . . . . . . . . . . . . . . . . . . . . . . . . . . *.=.-.! ;.>.. . . . . . . . . . . . . . ",
". . . . . . . . . . . . . . . . . . . . . . . . . . . . . ,.'.! ! ).. . . . . . . . . . . . . . ",
"  . . . . . . . . . . . . . . . . . . . . . . . . . . . . !.~.! ! {.. . . . . . . . . . . . .   ",
"  . . . . . . . . . . . . . . . . . . . . . . . . . . . . ].^.! ! /.. . . . . . . . . . . . .   ",
"  . . . . . . . . . . . . . . . (._.. . . . . . . . . . . :.<.! [.}.. . . . . . . . . . . . .   ",
"    . . . . . . . . . . . . . . |.1.2.3.4.. . . . . . . 5.6.! ! 7.8.. . . . . . . . . . . .     ",
"    . . . . . . . . . . . . . . |.9.! ( 0.a.b.c.d.e.f.g.h.! ! i.j.. . . . . . . . . . . . .     ",
"    . . . . . . . . . . . . . . k.l.! ! ! ! ! ! ! ! ! ! ! ! m.n.o.. . . . . . . . . . . . .     ",
"      . . . . . . . . . . . . . . p.q.r.s.! ! ! ! ! ! ! t.u.v.. . . . . . . . . . . . . .       ",
"        . . . . . . . . . . . . . . . . w.x.y.z.A.B.C.D.E.. . . . . . . . . . . . . . .         ",
"        . . . . . . . . . . . . . . . . . . . . . . . . . . . . . . . . . . . . . . . .         ",
"          . . . . . . . . . . . . . . . . . . . . . . . . . . . . . . . . . . . . . .           ",
"            . . . . . . . . . . . . . . . . . . . . . . . . . . . . . . . . . . . .             ",
"              . . . . . . . . . . . . . . . . . . . . . . . . . . . . . . . . . .               ",
"                . . . . . . . . . . . . . . . . . . . . . . . . . . . . . . . .                 ",
"                  . . . . . . . . . . . . . . . . . . . . . . . . . . . . . .                   ",
"                    . . . . . . . . . . . . . . . . . . . . . . . . . . . .                     ",
"                        . . . . . . . . . . . . . . . . . . . . . . . . .                       ",
"                          . . . . . . . . . . . . . . . . . . . . . .                           ",
"                                . . . . . . . . . . . . . . . .                                 ",
"                                      . . . . . . . . . .                                       "};
