/* XPM */
static char * saucedacity32_xpm[] = {
"32 32 108 2",
"  	c None",
". 	c #FFFFFF",
"+ 	c #FBE8CB",
"@ 	c #A68971",
"# 	c #5C4D42",
"$ 	c #3A3634",
"% 	c #383F46",
"& 	c #4F565F",
"* 	c #6E8095",
"= 	c #ACC1D7",
"- 	c #ECF9FF",
"; 	c #E8B672",
"> 	c #310F00",
", 	c #000000",
"' 	c #02070E",
") 	c #121009",
"! 	c #040000",
"~ 	c #479BEF",
"{ 	c #FFE59D",
"] 	c #450C00",
"^ 	c #000009",
"/ 	c #306297",
"( 	c #BEDDF1",
"_ 	c #FBFFFF",
": 	c #FAEFDF",
"< 	c #CAB298",
"[ 	c #795935",
"} 	c #5EA1EF",
"| 	c #E28E3A",
"1 	c #023C90",
"2 	c #E6FFFF",
"3 	c #C16D19",
"4 	c #1C70C4",
"5 	c #D37F2B",
"6 	c #033587",
"7 	c #DCFDFF",
"8 	c #FED07E",
"9 	c #270100",
"0 	c #000004",
"a 	c #1A3C64",
"b 	c #859FB6",
"c 	c #CADCED",
"d 	c #F9FFFF",
"e 	c #FFFFF8",
"f 	c #D29752",
"g 	c #200600",
"h 	c #071325",
"i 	c #3A4F66",
"j 	c #83A3C7",
"k 	c #E8FBFF",
"l 	c #F7E1C1",
"m 	c #9E8066",
"n 	c #4E3A26",
"o 	c #140801",
"p 	c #0D2E67",
"q 	c #B0E3FE",
"r 	c #FFFBF1",
"s 	c #DEC8AE",
"t 	c #937147",
"u 	c #1D0600",
"v 	c #083B8E",
"w 	c #DEFFFF",
"x 	c #EEB561",
"y 	c #1A0000",
"z 	c #000028",
"A 	c #80D4FF",
"B 	c #FFFFBE",
"C 	c #661200",
"D 	c #000006",
"E 	c #5EB2FF",
"F 	c #FFFAAD",
"G 	c #550700",
"H 	c #000014",
"I 	c #6CC0FF",
"J 	c #D69F75",
"K 	c #81AACF",
"L 	c #ECFBFF",
"M 	c #FFFFF3",
"N 	c #C67C34",
"O 	c #090000",
"P 	c #000C55",
"Q 	c #ADF5FF",
"R 	c #CB7723",
"S 	c #05152C",
"T 	c #465A6C",
"U 	c #7B868D",
"V 	c #92918B",
"W 	c #82786A",
"X 	c #512F13",
"Y 	c #030000",
"Z 	c #000011",
"` 	c #4496D8",
" .	c #FEFFFF",
"..	c #EECB9F",
"+.	c #7B634B",
"@.	c #321B0A",
"#.	c #010000",
"$.	c #000005",
"%.	c #152E50",
"&.	c #7BADD9",
"*.	c #F6FFFF",
"=.	c #FFFFFA",
"-.	c #F1E6DD",
";.	c #D4CBC2",
">.	c #BBB8B9",
",.	c #BDC3CC",
"'.	c #D9E8F5",
").	c #FDFFFF",
"                        . . . . . . . .                         ",
"                  . . . . . . . . . . . . . .                   ",
"              . . . . . . . . . . . . . . . . . .               ",
"            . . . . . . . . . . . . . . . . . . . .             ",
"          . . . . . . . . . . . . . . . . . . . . . .           ",
"        . . . . . . . . . . . . . . . . . . . . . . . .         ",
"      . . . . . . . . . . . . . . . . . . . . . . . . . .       ",
"    . . . . . . . . . . . . . . . . . . . . . . . . . . . .     ",
"    . . . . . . . . . . . + @ # $ % & * = - . . . . . . . .     ",
"  . . . . . . . . . . . ; > , , ' ) ! , , ~ . . . . . . . . .   ",
"  . . . . . . . . . . { ] ^ / ( _ . : < [ } . . . . . . . . .   ",
"  . . . . . . . . . . | , 1 2 . . . . . . . . . . . . . . . .   ",
". . . . . . . . . . . 3 , 4 . . . . . . . . . . . . . . . . . . ",
". . . . . . . . . . . 5 , 6 7 . . . . . . . . . . . . . . . . . ",
". . . . . . . . . . . 8 9 0 a b c d . . . . . . . . . . . . . . ",
". . . . . . . . . . . e f g , , , h i j k . . . . . . . . . . . ",
". . . . . . . . . . . . . l m n o , , , p q . . . . . . . . . . ",
". . . . . . . . . . . . . . . . r s t u , v w . . . . . . . . . ",
". . . . . . . . . . . . . . . . . . . x y z A . . . . . . . . . ",
". . . . . . . . . . . . . . . . . . . B C D E . . . . . . . . . ",
"  . . . . . . . . . . . . . . . . . . F G H I . . . . . . . .   ",
"  . . . . . . . . . . J K L . . . . M N O P Q . . . . . . . .   ",
"  . . . . . . . . . . R , S T U V W X Y Z `  .. . . . . . . .   ",
"    . . . . . . . . . ..+.@.#., , , $.%.&.*.. . . . . . . .     ",
"    . . . . . . . . . . . =.-.;.>.,.'.).. . . . . . . . . .     ",
"      . . . . . . . . . . . . . . . . . . . . . . . . . .       ",
"        . . . . . . . . . . . . . . . . . . . . . . . .         ",
"          . . . . . . . . . . . . . . . . . . . . . .           ",
"            . . . . . . . . . . . . . . . . . . . .             ",
"              . . . . . . . . . . . . . . . . . .               ",
"                  . . . . . . . . . . . . . .                   ",
"                        . . . . . . . .                         "};
