/* XPM */
static char * AudacityLogo48x48_xpm[] = {
"48 48 80 1",
" 	c #FFFFFF",
".	c #FEFEFE",
"+	c #DEDEDE",
"@	c #A8A8A8",
"#	c #7D7D7D",
"$	c #5A5A5A",
"%	c #262626",
"&	c #515151",
"*	c #787878",
"=	c #AFAFAF",
"-	c #E3E3E3",
";	c #D8D8D8",
">	c #5F5F5F",
",	c #000000",
"'	c #8A8A8A",
")	c #F1F1F1",
"!	c #FBFBFB",
"~	c #9D9D9D",
"{	c #4F4F4F",
"]	c #EEEEEE",
"^	c #8C8C8C",
"/	c #4D4D4D",
"(	c #A9A9A9",
"_	c #C5C5C5",
":	c #CACACA",
"<	c #B4B4B4",
"[	c #6D6D6D",
"}	c #727272",
"|	c #FDFDFD",
"1	c #CECECE",
"2	c #2E2E2E",
"3	c #C1C1C1",
"4	c #FCFCFC",
"5	c #B8B8B8",
"6	c #D1D1D1",
"7	c #D4D4D4",
"8	c #383838",
"9	c #424242",
"0	c #E6E6E6",
"a	c #828282",
"b	c #999999",
"c	c #E9E9E9",
"d	c #E4E4E4",
"e	c #BBBBBB",
"f	c #737373",
"g	c #C8C8C8",
"h	c #A3A3A3",
"i	c #9F9F9F",
"j	c #2A2A2A",
"k	c #C7C7C7",
"l	c #E2E2E2",
"m	c #585858",
"n	c #C2C2C2",
"o	c #222222",
"p	c #DDDDDD",
"q	c #F8F8F8",
"r	c #969696",
"s	c #3B3B3B",
"t	c #F7F7F7",
"u	c #707070",
"v	c #ECECEC",
"w	c #888888",
"x	c #959595",
"y	c #F9F9F9",
"z	c #D9D9D9",
"A	c #B7B7B7",
"B	c #8E8E8E",
"C	c #919191",
"D	c #E5E5E5",
"E	c #0D0D0D",
"F	c #161616",
"G	c #F5F5F5",
"H	c #555555",
"I	c #565656",
"J	c #A1A1A1",
"K	c #9A9A9A",
"L	c #F6F6F6",
"M	c #494949",
"N	c #323232",
"O	c #B5B5B5",
"                                                ",
"                                                ",
"                                                ",
"                                                ",
"                                                ",
"                                                ",
"                                                ",
"                                                ",
"                                                ",
"                  .+@#$%&*=-                    ",
"                 ;>,,,,,,,,,')                  ",
"               !~,,,,,,,,,,,,{]                 ",
"              !^,,,,/(_:<[,,,,}|                ",
"              1,,,234    .5,,,,6                ",
"               7890        a,,,b                ",
"                cd         e,,,f                ",
"                           g,,,#                ",
"                           h,,,i                ",
"                          cj,,,k                ",
"                         l$,,,m!                ",
"                        no,,,jp                 ",
"                      qr,,,,s;                  ",
"                     t},,,,uv                   ",
"                     w,,,,xy                    ",
"                    z,,,,A                      ",
"                    B,,,C                       ",
"                    m,,,D                       ",
"                   !E,,F!                       ",
"                   G,,,H                        ",
"                   G,,,I                        ",
"                   |---0                        ",
"                                                ",
"                                                ",
"                                                ",
"                     4!                         ",
"                   yJ%oKL                       ",
"                   @,,,,K                       ",
"                   M,,,,%4                      ",
"                   H,,,,N|                      ",
"                   O,,,,@                       ",
"                   4OmI=!                       ",
"                                                ",
"                                                ",
"                                                ",
"                                                ",
"                                                ",
"                                                ",
"                                                "};
