/* XPM */
static const char* const AudacityLogo48x48_xpm[] = {
"48 48 98 2",
"  	c #FFFFFF",
". 	c #EDEDED",
"+ 	c #AFAFAF",
"@ 	c #7A7A7A",
"# 	c #4F4F4F",
"$ 	c #262626",
"% 	c #707070",
"& 	c #9B9B9B",
"* 	c #CDCDCD",
"= 	c #F6F6F6",
"- 	c #F5F5F5",
"; 	c #ABABAB",
"> 	c #1C1C1C",
", 	c #000000",
"' 	c #3B3B3B",
") 	c #B9B9B9",
"! 	c #FAFAFA",
"~ 	c #EEEEEE",
"{ 	c #565656",
"] 	c #6E6E6E",
"^ 	c #ECECEC",
"/ 	c #FDFDFD",
"( 	c #727272",
"_ 	c #5A5A5A",
": 	c #C5C5C5",
"< 	c #E7E7E7",
"[ 	c #F1F1F1",
"} 	c #DFDFDF",
"| 	c #B3B3B3",
"1 	c #494949",
"2 	c #BCBCBC",
"3 	c #CFCFCF",
"4 	c #F9F9F9",
"5 	c #F8F8F8",
"6 	c #B0B0B0",
"7 	c #9E9E9E",
"8 	c #939393",
"9 	c #FBFBFB",
"0 	c #686868",
"a 	c #FEFEFE",
"b 	c #535353",
"c 	c #555555",
"d 	c #717171",
"e 	c #A7A7A7",
"f 	c #9D9D9D",
"g 	c #E2E2E2",
"h 	c #9C9C9C",
"i 	c #F3F3F3",
"j 	c #A1A1A1",
"k 	c #2E2E2E",
"l 	c #A5A5A5",
"m 	c #E3E3E3",
"n 	c #FCFCFC",
"o 	c #A0A0A0",
"p 	c #5F5F5F",
"q 	c #EFEFEF",
"r 	c #D5D5D5",
"s 	c #4D4D4D",
"t 	c #0D0D0D",
"u 	c #8A8A8A",
"v 	c #E8E8E8",
"w 	c #F7F7F7",
"x 	c #C6C6C6",
"y 	c #B4B4B4",
"z 	c #474747",
"A 	c #959595",
"B 	c #585858",
"C 	c #C7C7C7",
"D 	c #9F9F9F",
"E 	c #F4F4F4",
"F 	c #767676",
"G 	c #CECECE",
"H 	c #DBDBDB",
"I 	c #BBBBBB",
"J 	c #D6D6D6",
"K 	c #BDBDBD",
"L 	c #E4E4E4",
"M 	c #353535",
"N 	c #8B8B8B",
"O 	c #EAEAEA",
"P 	c #949494",
"Q 	c #737373",
"R 	c #828282",
"S 	c #161616",
"T 	c #C1C1C1",
"U 	c #515151",
"V 	c #E0E0E0",
"W 	c #222222",
"X 	c #D1D1D1",
"Y 	c #696969",
"Z 	c #777777",
"` 	c #E5E5E5",
" .	c #B6B6B6",
"..	c #848484",
"+.	c #666666",
"@.	c #3D3D3D",
"#.	c #7F7F7F",
"$.	c #B1B1B1",
"                                                                                                ",
"                                                                                                ",
"                                                                                                ",
"                                                                                                ",
"                                                                                                ",
"                                                                                                ",
"                                                                                                ",
"                                                                                                ",
"                                                                                                ",
"                                        . + @ # $ # % & * =                                     ",
"                                    - ; > , , , , , , , , ' ) !                                 ",
"                                  ~ { , , , , , , , , , , , , ] ^                               ",
"                                / ( , , , _ : < = [ } | 1 , , , 2                               ",
"                                3 , , , ( 4             5 6 , 7                                 ",
"                                8 , , , <                   } 9                                 ",
"                                0 , , ' a                                                       ",
"                                b , , c                                                         ",
"                                d , , , -                                                       ",
"                                e , , , f                                                       ",
"                                g , , , , h i                                                   ",
"                                  j , , , , k l m                                               ",
"                                  n o , , , , , , p ) q                                         ",
"                                      r s , , , , , , t u v                                     ",
"                                        w x d , , , , , , > y 9                                 ",
"                                              m e z , , , , , A                                 ",
"                                                  9 * B , , , , C                               ",
"                                                      5 D , , , k E                             ",
"                                                        / F , , , *                             ",
"                                                          G , , , +                             ",
"                                                          m , , , 7                             ",
"                                                          H , , , e                             ",
"                                                          I , , , I                             ",
"                                J K                     5 0 , , , L                             ",
"                              < M , N O               ! P , , , Q a                             ",
"                              R , , , S P G O = - L T U , , , > V                               ",
"                              = u , , , , , , , , , , , , , W 3                                 ",
"                                a X Y , , , , , , , , , , Z `                                   ",
"                                    / V  ...+.@.k { #.$.V                                       ",
"                                                                                                ",
"                                                                                                ",
"                                                                                                ",
"                                                                                                ",
"                                                                                                ",
"                                                                                                ",
"                                                                                                ",
"                                                                                                ",
"                                                                                                ",
"                                                                                                "};
