/* XPM */
static char * gnome_mime_application_x_audacity_project_xpm[] = {
"48 48 149 2",
"  	c None",
". 	c #9D9D9D",
"+ 	c #9E9E9E",
"@ 	c #A0A0A0",
"# 	c #A3A3A3",
"$ 	c #A5A5A5",
"% 	c #A4A4A4",
"& 	c #9F9F9F",
"* 	c #9C9C9C",
"= 	c #999999",
"- 	c #979797",
"; 	c #959595",
"> 	c #929292",
", 	c #909090",
"' 	c #8F8F8F",
") 	c #8C8C8C",
"! 	c #898989",
"~ 	c #888888",
"{ 	c #858585",
"] 	c #838383",
"^ 	c #818181",
"/ 	c #7E7E7E",
"( 	c #7C7C7C",
"_ 	c #7A7A7A",
": 	c #787878",
"< 	c #757575",
"[ 	c #727272",
"} 	c #717171",
"| 	c #6E6E6E",
"1 	c #6C6C6C",
"2 	c #6B6B6B",
"3 	c #676767",
"4 	c #666666",
"5 	c #9A9A9A",
"6 	c #E6E6E6",
"7 	c #FBFBFB",
"8 	c #FAFAFA",
"9 	c #F9F9F9",
"0 	c #F8F8F8",
"a 	c #F7F7F7",
"b 	c #E7E7E7",
"c 	c #626262",
"d 	c #E4E4E4",
"e 	c #E0E0E0",
"f 	c #DEDEDE",
"g 	c #E2E2E2",
"h 	c #E3E3E3",
"i 	c #E5E5E5",
"j 	c #5D5D5D",
"k 	c #DFDFDF",
"l 	c #DBDBDB",
"m 	c #E1E1E1",
"n 	c #DCDCDC",
"o 	c #969696",
"p 	c #E8E8E8",
"q 	c #DDDDDD",
"r 	c #E9E9E9",
"s 	c #949494",
"t 	c #5C5C5C",
"u 	c #919191",
"v 	c #EAEAEA",
"w 	c #5B5B5B",
"x 	c #EBEBEB",
"y 	c #8D8D8D",
"z 	c #5A5A5A",
"A 	c #8B8B8B",
"B 	c #595959",
"C 	c #AAAAAA",
"D 	c #797979",
"E 	c #484848",
"F 	c #323232",
"G 	c #939393",
"H 	c #D0D0D0",
"I 	c #D3D3D3",
"J 	c #D2D2D2",
"K 	c #444444",
"L 	c #000000",
"M 	c #0B0B0B",
"N 	c #585858",
"O 	c #C6C6C6",
"P 	c #4F4F4F",
"Q 	c #C3C3C3",
"R 	c #CCCCCC",
"S 	c #A1A1A1",
"T 	c #222222",
"U 	c #383838",
"V 	c #D5D5D5",
"W 	c #575757",
"X 	c #BFBFBF",
"Y 	c #D9D9D9",
"Z 	c #DADADA",
"` 	c #565656",
" .	c #ECECEC",
"..	c #3E3E3E",
"+.	c #555555",
"@.	c #7F7F7F",
"#.	c #B3B3B3",
"$.	c #545454",
"%.	c #F6F6F6",
"&.	c #EDEDED",
"*.	c #262626",
"=.	c #5F5F5F",
"-.	c #CACACA",
";.	c #535353",
">.	c #BABABA",
",.	c #191919",
"'.	c #606060",
").	c #525252",
"!.	c #6D6D6D",
"~.	c #C7C7C7",
"{.	c #515151",
"].	c #767676",
"^.	c #ACACAC",
"/.	c #616161",
"(.	c #D1D1D1",
"_.	c #747474",
":.	c #AFAFAF",
"<.	c #4E4E4E",
"[.	c #737373",
"}.	c #696969",
"|.	c #636363",
"1.	c #EEEEEE",
"2.	c #A9A9A9",
"3.	c #6F6F6F",
"4.	c #BDBDBD",
"5.	c #ECECEB",
"6.	c #303030",
"7.	c #CDCDCD",
"8.	c #B4B4B4",
"9.	c #B9B9B9",
"0.	c #656565",
"a.	c #F5F5F5",
"b.	c #EFEFEF",
"c.	c #828282",
"d.	c #272727",
"e.	c #818180",
"f.	c #646464",
"g.	c #EFEFEE",
"h.	c #F0F0F0",
"i.	c #F1F1F0",
"j.	c #F1F1F1",
"k.	c #F2F2F2",
"l.	c #F2F2F1",
"m.	c #EDEDEC",
"n.	c #F3F3F3",
"o.	c #F4F4F4",
"p.	c #5E5E5E",
"q.	c #EEEEED",
"r.	c #505050",
"                                                                                                ",
"                                                                                                ",
"                                                                                                ",
"              . + @ # $ % # & . * = - ; > , ' ) ! ~ { ] ^ / ( _ : < [ } | 1 2 3 4               ",
"            5 6 7 7 7 7 7 7 7 7 7 7 8 8 8 8 8 8 9 9 9 9 9 0 0 0 0 0 0 a a a a a b c             ",
"            5 a d e e f b g g g h h d i i d i i i i i 6 6 6 6 6 6 6 6 6 6 6 i i a j             ",
"            = a h f k l 6 e m m m g g g h h h h d d d d d d i i i i i d d d d 6 a j             ",
"            = a h k k n 6 m h d d d i d d i d d d i i i i i i i i i i i i i i b a j             ",
"            o a d k e n b h i b p 6 b 6 6 b b 6 6 6 6 6 6 6 6 6 6 6 6 6 6 6 i b a j             ",
"            ; 0 d e e q b d 6 p r p p p p p b b b p p b b b b b b b b b 6 6 6 b a j             ",
"            s 0 i e m q b d b p r p p r r p p p p p p p b b b b b b b b b b b p a t             ",
"            > 0 i m m f b i 6 r r r r r r p p p r r p p p p p p p p p p p p p p a t             ",
"            u 0 6 m g f b b b v v v r r r r r p r r r p p p p p r r r r r p p r a w             ",
"            ' 0 6 g g k p r p v v v v v r r r r r r p p p p r r r v x x x x x x a w             ",
"            y 0 b g h e r x r r x x v v v v v v r r r r r r r r v x x x x x x x 0 z             ",
"            A 0 b h h e v v x v x x x x v v v r v v v v r r r v x x x x x x x x 0 B             ",
"            ! a p h d e v x x x x x x x x d C D E F t G H v v x x x x x x x x x 0 B             ",
"            ~ a p I f m v x x x x x x x J K L L L L L L M . i x x x x x x x x x 0 N             ",
"            { a p O g m x x x x x x x g P L w Q e e R S T U V x x x x x x x x x 0 W             ",
"            ] a p h x m x x x x x x x X L L Y x x x x x Z J x x x x x x x x x x 0 `             ",
"            ^ a p i 6 m  .x x x x x x S L ..x x x x x x x x x x x x x x x x x x 0 +.            ",
"            @.a r i 6 g  .x x x x x x #.L L l x x x x x x x x x x x x x x x x x 0 $.            ",
"            / %.r 6 6 g &.x x x x x x Y *.L =.-.x x x x x x x x x x x x x x x x 0 ;.            ",
"            ( %.r 6 b g &.x x x x x x x >.,.L L '.C Y x x x x x x x x x x x x x 0 ).            ",
"            _ %.v 6 b h &.x x x x x x x x V _ L L L L !.~.x x x x x x x x x x x 0 {.            ",
"            ].%.v b b h &.x x x x x x x x x x l ^./.L L L , x x x x x x x x x x 0 P             ",
"            < %.v b p h &.x x x x x x x x x x x x x (._.L L :.x x x x x x x x x 0 <.            ",
"            [.%.x b p d &.x x x x x x x x x x x x x x p }.L |.x x x x x x x x x a <.            ",
"            } %.v b p d 1.x x x x x x x x x x x x x x x 2.L M i x x x x x x x x a <.            ",
"            3.%.v 4.Y d 1.x x x x x x x x x x x 5.x x x + L 6.r x x x x x x x x a <.            ",
"            !.%.v Y 1.d 1.x x x x x x 7.8.r x 5.x x x h $.L _  . .x x x x x x x a <.            ",
"            2 %.v p r i 1.x x x x x f U L 4 9.I d k Q 0.L ,.(.&.&. .x x x x x x a <.            ",
"            }.%.v p r i 1.x x x x x x 4...L L L L L L L U 4.&.1.&.&. . .x x x x a <.            ",
"            4 a.x p r i b. .x x x x  . .d 8.c.).d.W e.C d 1.&.1.1.&.&.&.x x x x a <.            ",
"            f.a.x p r i b.x x x x &.1.1.1.g.b.h.h.i.j.j.b.&.1.1.b.1.1.&. . .x x a <.            ",
"            |.a.x p r i 1.x  .x  .&.1.h.h.b.b.j.j.k.k.l.h.b.b.b.b.h.b.1.1.&.x  .%.P             ",
"            /.a.x p r i b. .&.&.m.1.b.j.j.h.j.j.k.n.k.k.j.h.h.h.h.h.b.b.1.1.&.b.o.+.            ",
"            p.a.x p r i b. . .&.q.b.b.h.j.l.k.n.n.o.n.n.k.j.j.j.j.h.h.h.h.b.b.h.o.B             ",
"            t a.x p r i b.x  .&.1.b.b.h.j.k.k.n.o.o.o.o.n.k.k.k.k.k.n.n.k.j.k.n.a.).            ",
"            z o.x p r i b.x  .&.1.1.b.h.j.j.k.n.o.o.a.a.o.n.o.o.a.%.a %.%.a.a.%.%.<.            ",
"            B o.x p r i b.x  .&.1.1.b.h.j.j.k.n.n.o.a.a.%.%.a 0 0 0 a a %.%.a.a.a <.            ",
"            ` o.v p r i 1.x  .&.&.1.b.h.h.j.k.k.n.o.o.a.%.%.a a a a a %.%.a.a.a.a <.            ",
"            ;.o.v p r i 1.x  .&.&.1.b.b.h.j.j.k.n.n.o.a.a.%.%.%.%.%.%.%.a.a.o.a.a <.            ",
"            $.&.0 a 0 %.0 0 0 0 0 0 0 0 a a a a a a a a a a a a a a a a a a a a o.r.            ",
"              ` 4 4 4 4 0.0.0.0.0.0.0.0.f.f.f.f.f.0.0.0.0.4 4 4 4 4 4 4 3 3 3 3 W `             ",
"                                                                                                ",
"                                                                                                ",
"                                                                                                "};
