/* XPM */
static const char* const TenacityLogoAlpha_xpm[] = {
"48 48 2 1",
" 	c White",
".	c #000000",
"                                                ",
"                                                ",
"                                                ",
"                                                ",
"                                                ",
"                                                ",
"                                                ",
"                                                ",
"                                                ",
"                     .......                    ",
"                   ............                 ",
"                  ..............                ",
"                 .....     ......               ",
"                 ....        ...                ",
"                ....                            ",
"                ....                            ",
"                ....                            ",
"                ....                            ",
"                .....                           ",
"                 .....                          ",
"                 .......                        ",
"                  .........                     ",
"                    .........                   ",
"                      .........                 ",
"                        ........                ",
"                           .....                ",
"                            .....               ",
"                             ....               ",
"                              ....              ",
"                              ....              ",
"                              ....              ",
"                             .....              ",
"                             ....               ",
"                ...         .....               ",
"               ......      .....                ",
"                ...............                 ",
"                  ............                  ",
"                    ........                    ",
"                                                ",
"                                                ",
"                                                ",
"                                                ",
"                                                ",
"                                                ",
"                                                ",
"                                                ",
"                                                ",
"                                                "};
