/* XPM */
static const char* const TenacityLogoAlpha_xpm[] = {
/* columns rows colors chars-per-pixel */
"48 48 121 2 ",
"   c None",
".  c #BF1F4A",
"X  c #BB234F",
"o  c #BE204C",
"O  c #BC224E",
"+  c #AF2F5E",
"@  c #B92551",
"#  c #B82653",
"$  c #B62855",
"%  c #B52957",
"&  c #B32A58",
"*  c #B22C5A",
"=  c #B02D5C",
"-  c #AD305F",
";  c #9F3D6F",
":  c #9E3F71",
">  c #A73667",
",  c #AA3363",
"<  c #AC3261",
"1  c #A93465",
"2  c #A63768",
"3  c #A4396A",
"4  c #A33A6C",
"5  c #A13C6D",
"6  c #C31B46",
"7  c #C41A45",
"8  c #C51A45",
"9  c #C41B45",
"0  c #C21C47",
"q  c #C11E49",
"w  c #C1244E",
"e  c #9C4073",
"r  c #9B4174",
"t  c #994376",
"y  c #96467A",
"u  c #95477C",
"i  c #984478",
"p  c #93497D",
"a  c #924A7F",
"s  c #7E5C96",
"d  c #7E5D96",
"f  c #7D5E97",
"g  c #7B5F99",
"h  c #7D5E98",
"j  c #76649F",
"k  c #77649F",
"l  c #7B6099",
"z  c #7A619B",
"x  c #78629D",
"c  c #78639D",
"v  c #5E7BBB",
"b  c #5B7EBE",
"n  c #5D7CBD",
"m  c #6F6BA7",
"M  c #6D6CA9",
"N  c #6C6EAB",
"B  c #6A6FAD",
"V  c #7367A2",
"C  c #7565A1",
"Z  c #7268A4",
"A  c #706AA6",
"S  c #6971AE",
"D  c #6772B0",
"F  c #6674B2",
"G  c #6376B6",
"H  c #6475B4",
"J  c #6178B7",
"K  c #6079B9",
"L  c #5A7FC0",
"P  c #8F4D83",
"I  c #8D4E84",
"U  c #904B81",
"Y  c #8C5086",
"T  c #87548B",
"R  c #86558D",
"E  c #85568D",
"W  c #84578E",
"Q  c #84578F",
"!  c #8A5188",
"~  c #895389",
"^  c #89538A",
"/  c #845790",
"(  c #835891",
")  c #815A92",
"_  c #815A93",
"`  c #805B94",
"'  c #845D95",
"]  c #3F98DF",
"[  c #3E99DF",
"{  c #3E99E0",
"}  c #4F89CC",
"|  c #4D8ACE",
" . c #5782C3",
".. c #5583C5",
"X. c #5485C7",
"o. c #5880C2",
"O. c #5286C9",
"+. c #5188CB",
"@. c #4A8DD2",
"#. c #498FD3",
"$. c #4C8CD0",
"%. c #4790D5",
"&. c #4692D7",
"*. c #4493D9",
"=. c #4394DB",
"-. c #4797DB",
";. c #4196DC",
":. c #4097DE",
">. c #E39FB2",
",. c #E3A0B2",
"<. c #C9B9D1",
"1. c #CAB8D0",
"2. c #C9B9D2",
"3. c #AFD1EF",
"4. c #FCF4F6",
"5. c #F8F6F9",
"6. c #F8F7FA",
"7. c #F9F7FA",
"8. c #F5F9FD",
"9. c #F6FAFD",
"0. c white",
/* pixels */
"    d d g z x j C V Z Z m M M B S D F H G J K v n b L o. ...X.O.+.} } $.@.@.%.%.*.=.;.;.] ]     ",
"  _ ` d h g z x j C V Z Z m M M B S D F H G J K v n b L o. ...X.O.+.} } $.@.@.%.%.*.=.;.;.] {   ",
"W _ _ ` d h g z x j C V Z Z m M M B S D F H G J K v n b L o. ...X.O.+.} } $.@.@.%.%.*.=.;.;.] ] ",
"W W _ ' 2.5.0.0.0.0.0.0.0.0.0.0.0.0.0.0.0.0.0.0.0.0.0.0.0.0.0.0.0.0.0.0.0.0.0.0.0.0.8.3.-.;.;.] ",
"T W W 2.0.0.0.0.0.0.0.0.0.0.0.0.0.0.0.0.0.0.0.0.0.0.0.0.0.0.0.0.0.0.0.0.0.0.0.0.0.0.0.0.3.=.;.;.",
"~ T W 5.0.0.0.0.0.0.0.0.0.0.0.0.0.0.0.0.0.0.0.0.0.0.0.0.0.0.0.0.0.0.0.0.0.0.0.0.0.0.0.0.8.*.=.;.",
"~ ~ T 0.0.0.0.0.0.0.0.0.0.0.0.0.0.0.0.0.0.0.0.0.F H G J K v 0.0.0.0.0.0.0.0.0.0.0.0.0.0.0.%.*.=.",
"Y ~ ~ 0.0.0.0.0.0.0.0.0.0.0.0.0.0.0.0.0.0.0.0.0.D F H G J K 0.0.0.0.0.0.0.0.0.0.0.0.0.0.0.%.%.*.",
"I Y ~ 0.0.0.0.0.0.0.0.0.0.0.0.0.0.0.0.0.0.0.0.0.S D F H G J 0.0.0.0.0.0.0.0.0.0.0.0.0.0.0.@.%.%.",
"P I Y 0.0.0.0.0.0.0.0.0.0.0.0.0.0.0.0.0.0.0.0.0.B S D F H G 0.0.0.0.0.0.0.0.0.0.0.0.0.0.0.@.@.%.",
"U P I 0.0.0.0.0.0.0.0.0.0.0.0.0.0.0.0.0.0.0.0.0.M B S D F H 0.0.0.0.0.0.0.0.0.0.0.0.0.0.0.$.@.@.",
"a U P 0.0.0.0.0.0.0.0.0.0.0.0.0.0.0.0.0.0.0.0.0.M M B S D F 0.0.0.0.0.0.0.0.0.0.0.0.0.0.0.} $.@.",
"a a U 0.0.0.0.0.0.0.0.0._ ` d h g z 0.0.0.0.0.0.m M M B S D 0.0.0.0.0.0.0.0.0.0.0.0.0.0.0.} } $.",
"u a a 0.0.0.0.0.0.0.0.0._ _ ` d h g 0.0.0.0.0.0.Z m M M B S 0.0.0.0.0.0.0.0.0.0.0.0.0.0.0.+.} } ",
"y u a 0.0.0.0.0.0.0.0.0.W _ _ ` d h 0.0.0.0.0.0.Z Z m M M B 0.0.0.0.0.0.0.0.0.0.0.0.0.0.0.O.+.} ",
"i y u 0.0.0.0.0.0.0.0.0.W W _ _ ` d 0.0.0.0.0.0.V Z Z m M M B S D F H G 0.0.0.0.0.0.0.0.0.X.O.+.",
"t i y 0.0.0.0.0.0.0.0.0.T W W _ _ ` 0.0.0.0.0.0.C V Z Z m M M B S D F H 0.0.0.0.0.0.0.0.0...X.O.",
"t t i 0.0.0.0.0.0.0.0.0.~ T W W _ _ 0.0.0.0.0.0.j C V Z Z m M M B S D F 0.0.0.0.0.0.0.0.0. ...X.",
"e t t 0.0.0.0.0.0.0.0.0.~ ~ T W W _ _ ` d h g z x j C V Z Z m M M B S D 0.0.0.0.0.0.0.0.0.o. ...",
": e t 0.0.0.0.0.0.0.0.0.Y ~ ~ T W W _ _ ` d h g z x j C V Z Z m M M B S 0.0.0.0.0.0.0.0.0.L o. .",
"; : e 0.0.0.0.0.0.0.0.0.I Y ~ ~ T W W _ _ ` d h g z x j C V Z Z m M M B 0.0.0.0.0.0.0.0.0.b L o.",
"5 ; : e t t i y u a a U P I Y ~ ~ T W W _ _ ` d h g z x j C V Z Z m M M B S D F H G J K v n b L ",
"4 5 ; : e t t i y u a a U P I Y ~ ~ T W W _ _ ` d h g z x j C V Z Z m M M B S D F H G J K v n b ",
"3 4 5 ; : e t t i y u a a U P I Y ~ ~ T W W _ _ ` d h g z x j C V Z Z m M M B S D F H G J K v n ",
"2 3 4 5 ; : e t t i y u a a U P I Y ~ ~ T W W _ _ ` d h g z x j C V Z Z m M M B S D F H G J K v ",
"> 2 3 4 5 ; : e t t i y u a a U P I Y ~ ~ T W W _ _ ` d h g z x j C V Z Z m M M B S D F H G J K ",
"1 > 2 3 4 5 ; : e t t i y u a a U P I Y ~ ~ T W W _ _ ` d h g z x j C V Z Z m M M B S D F H G J ",
", 1 > 0.0.0.0.0.0.0.0.0.i y u a a U P I Y ~ ~ T W W _ _ ` d h g z x j C 0.0.0.0.0.0.0.0.0.F H G ",
"< , 1 0.0.0.0.0.0.0.0.0.t i y u a a U P I Y ~ ~ T W W _ _ ` d h g z x j 0.0.0.0.0.0.0.0.0.D F H ",
"- < , 0.0.0.0.0.0.0.0.0.t t i y u a a U P I Y ~ ~ T W W _ _ ` d h g z x 0.0.0.0.0.0.0.0.0.S D F ",
"+ - < 0.0.0.0.0.0.0.0.0.e t t i y u 0.0.0.0.0.0.~ ~ T W W _ _ ` d h g z 0.0.0.0.0.0.0.0.0.B S D ",
"= + - 0.0.0.0.0.0.0.0.0.: e t t i y 0.0.0.0.0.0.Y ~ ~ T W W _ _ ` d h z 0.0.0.0.0.0.0.0.0.M B S ",
"* = + 0.0.0.0.0.0.0.0.0.; : e t t i 0.0.0.0.0.0.I Y ~ ~ T W W _ _ ` d h 0.0.0.0.0.0.0.0.0.M M B ",
"& * = 0.0.0.0.0.0.0.0.0.5 ; : e t t 0.0.0.0.0.0.P I Y ~ ~ T 0.0.0.0.0.0.0.0.0.0.0.0.0.0.0.m M M ",
"% & * 0.0.0.0.0.0.0.0.0.4 5 ; : e t 0.0.0.0.0.0.U P I Y ~ ~ 0.0.0.0.0.0.0.0.0.0.0.0.0.0.0.Z m M ",
"% % & 0.0.0.0.0.0.0.0.0.3 4 5 ; : e 0.0.0.0.0.0.a U P I Y ~ 0.0.0.0.0.0.0.0.0.0.0.0.0.0.0.Z Z m ",
"# % % 0.0.0.0.0.0.0.0.0.0.0.0.0.0.0.0.0.0.0.0.0.a a U P I Y 0.0.0.0.0.0.0.0.0.0.0.0.0.0.0.V Z Z ",
"# # % 0.0.0.0.0.0.0.0.0.0.0.0.0.0.0.0.0.0.0.0.0.u a a U P I 0.0.0.0.0.0.0.0.0.0.0.0.0.0.0.C V Z ",
"X # # 0.0.0.0.0.0.0.0.0.0.0.0.0.0.0.0.0.0.0.0.0.y u a a U P 0.0.0.0.0.0.0.0.0.0.0.0.0.0.0.j C V ",
"O X # 0.0.0.0.0.0.0.0.0.0.0.0.0.0.0.0.0.0.0.0.0.i y u a a U 0.0.0.0.0.0.0.0.0.0.0.0.0.0.0.x j C ",
"O O X 0.0.0.0.0.0.0.0.0.0.0.0.0.0.0.0.0.0.0.0.0.t i y u a a 0.0.0.0.0.0.0.0.0.0.0.0.0.0.0.z x j ",
". O O 0.0.0.0.0.0.0.0.0.0.0.0.0.0.0.0.0.0.0.0.0.t t i y u a 0.0.0.0.0.0.0.0.0.0.0.0.0.0.0.g z x ",
"q . O 4.0.0.0.0.0.0.0.0.0.0.0.0.0.0.0.0.0.0.0.0.0.0.0.0.0.0.0.0.0.0.0.0.0.0.0.0.0.0.0.0.5.h g z ",
"0 q . ,.0.0.0.0.0.0.0.0.0.0.0.0.0.0.0.0.0.0.0.0.0.0.0.0.0.0.0.0.0.0.0.0.0.0.0.0.0.0.0.0.2.d h g ",
"6 0 q w >.4.0.0.0.0.0.0.0.0.0.0.0.0.0.0.0.0.0.0.0.0.0.0.0.0.0.0.0.0.0.0.0.0.0.0.0.0.5.2.' ` d d ",
"7 7 0 q . O O X # # % % & * = + - < , 1 > 2 3 4 5 ; : e t t i y u a a U P I Y ~ ~ T W W _ _ ` d ",
"  7 7 0 q . O O X # # % % & * = + - < , 1 > 2 3 4 5 ; : e t t i y u a a U P I Y ~ ~ T W W _ _   ",
"    7 6 0 q . O O X # # % % & * = + - < , 1 > 2 3 4 5 ; : e t t i y u a a U P I Y ~ ~ T W /     "
};
