/* XPM */
static const char* const TenacityLogo_xpm[] = {
"32 32 67 1",
" 	c None",
".	c #7D5E98",
"+	c #7A609A",
"@	c #78629D",
"#	c #7664A0",
"$	c #7367A2",
"%	c #7169A5",
"&	c #6F6BA7",
"*	c #6D6DAA",
"=	c #6A6FAD",
"-	c #6871AF",
";	c #6674B2",
">	c #6376B5",
",	c #6178B7",
"'	c #5F7ABA",
")	c #5D7CBD",
"!	c #5A7EBF",
"~	c #5880C2",
"{	c #5683C4",
"]	c #5485C7",
"^	c #5187CA",
"/	c #4F89CC",
"(	c #4D8BCF",
"_	c #4A8DD2",
":	c #488FD4",
"<	c #4692D7",
"[	c #4494DA",
"}	c #4196DC",
"|	c #3F98DF",
"1	c #815A92",
"2	c #7F5C95",
"3	c #86558E",
"4	c #835890",
"5	c #825A91",
"6	c #FFFFFF",
"7	c #3F99DF",
"8	c #88538A",
"9	c #86558D",
"0	c #8A5188",
"a	c #8C4F85",
"b	c #8F4D83",
"c	c #914B80",
"d	c #93497D",
"e	c #96467B",
"f	c #984478",
"g	c #9A4275",
"h	c #9C4073",
"i	c #9F3E70",
"j	c #A13C6D",
"k	c #A33A6B",
"l	c #A63768",
"m	c #A83566",
"n	c #AA3363",
"o	c #AC3160",
"p	c #AF2F5E",
"q	c #B12D5B",
"r	c #B32A58",
"s	c #B52856",
"t	c #B82653",
"u	c #BA2450",
"v	c #BC224E",
"w	c #BF204B",
"x	c #C11E49",
"y	c #C31B46",
"z	c #BF1F4C",
"A	c #815B92",
"B	c #C31B47",
"  .+@#$%&*=-;>,')!~{]^/(_:<[}|  ",
" 12.+@#$%&*=-;>,')!~{]^/(_:<[}| ",
"34566666666666666666666666666[}7",
"896666666666666666666666666666[}",
"0866666666666666;>,'6666666666<[",
"a066666666666666-;>,6666666666:<",
"ba66666666666666=-;>6666666666_:",
"cb66666666666666*=-;6666666666(_",
"dc66666612.+6666&*=-6666666666/(",
"ed666666412.6666%&*=6666666666^/",
"fe66666694126666$%&*=-;>666666]^",
"gf66666689416666#$%&*=-;666666{]",
"hg666666089412.+@#$%&*=-666666~{",
"ih666666a089412.+@#$%&*=666666!~",
"jihgfedcba089412.+@#$%&*=-;>,')!",
"kjihgfedcba089412.+@#$%&*=-;>,')",
"lkjihgfedcba089412.+@#$%&*=-;>,'",
"mlkjihgfedcba089412.+@#$%&*=-;>,",
"nm666666fedcba089412.+@#666666;>",
"on666666gfedcba089412.+@666666-;",
"po666666hgfe6666089412.+666666=-",
"qp666666ihgf6666a089412.666666*=",
"rq666666jihg6666ba086666666666&*",
"sr666666kjih6666cba06666666666%&",
"ts66666666666666dcba6666666666$%",
"ut66666666666666edcb6666666666#$",
"vu66666666666666fedc6666666666@#",
"wv66666666666666gfed6666666666+@",
"xw6666666666666666666666666666.+",
"yxz66666666666666666666666666A2.",
" Bxwvutsrqponmlkjihgfedcba08941 ",
"  yxwvutsrqponmlkjihgfedcba083  "};
