/* XPM */
static char * TenacityLogo48x48_xpm[] = {
"48 48 98 2",
"  	c None",
". 	c #7A6099",
"+ 	c #79619B",
"@ 	c #78629D",
"# 	c #76649F",
"$ 	c #7565A0",
"% 	c #7367A2",
"& 	c #7268A4",
"* 	c #706AA6",
"= 	c #6F6BA7",
"- 	c #6D6CA9",
"; 	c #6C6EAB",
"> 	c #6A6FAD",
", 	c #6971AE",
"' 	c #6772B0",
") 	c #6674B2",
"! 	c #6475B4",
"~ 	c #6376B6",
"{ 	c #6178B7",
"] 	c #6079B9",
"^ 	c #5E7BBB",
"/ 	c #5D7CBD",
"( 	c #5B7EBE",
"_ 	c #5A7FC0",
": 	c #5880C2",
"< 	c #5782C4",
"[ 	c #5583C5",
"} 	c #5485C7",
"| 	c #5286C9",
"1 	c #5088CB",
"2 	c #4F89CC",
"3 	c #4D8ACE",
"4 	c #4C8CD0",
"5 	c #4A8DD2",
"6 	c #498FD3",
"7 	c #4790D5",
"8 	c #4692D7",
"9 	c #4493D9",
"0 	c #4394DA",
"a 	c #4196DC",
"b 	c #4097DE",
"c 	c #805B94",
"d 	c #7E5D96",
"e 	c #7D5E98",
"f 	c #7B5F99",
"g 	c #3E99E0",
"h 	c #835791",
"i 	c #815A92",
"j 	c #84578F",
"k 	c #835891",
"l 	c #86548C",
"m 	c #86558D",
"n 	c #3F97DE",
"o 	c #89538B",
"p 	c #87548B",
"q 	c #8A5188",
"r 	c #89538A",
"s 	c #8C5086",
"t 	c #8D4E84",
"u 	c #8F4D83",
"v 	c #904B81",
"w 	c #924A7F",
"x 	c #93497D",
"y 	c #95477C",
"z 	c #96467A",
"A 	c #984478",
"B 	c #994376",
"C 	c #9B4174",
"D 	c #9C4073",
"E 	c #9E3F71",
"F 	c #9F3D6F",
"G 	c #A13C6D",
"H 	c #A33A6C",
"I 	c #A4396A",
"J 	c #A63768",
"K 	c #A73666",
"L 	c #A93565",
"M 	c #AA3363",
"N 	c #AC3261",
"O 	c #AD305F",
"P 	c #AF2F5E",
"Q 	c #B02D5C",
"R 	c #B22C5A",
"S 	c #B32A58",
"T 	c #B52957",
"U 	c #B62855",
"V 	c #B82653",
"W 	c #B92551",
"X 	c #BB2350",
"Y 	c #BC224E",
"Z 	c #BE204C",
"` 	c #BF1F4A",
" .	c #C11E49",
"..	c #79619A",
"+.	c #C21C47",
"@.	c #7C5F99",
"#.	c #C51B44",
"$.	c #C41C45",
"        . + @ # $ % & * = - ; > , ' ) ! ~ { ] ^ / ( _ : < [ } | 1 2 3 4 5 6 7 8 9 0 a b         ",
"    c d e f + @ # $ % & * = - ; > , ' ) ! ~ { ] ^ / ( _ : < [ } | 1 2 3 4 5 6 7 8 9 0 a b g     ",
"  h i c d e f + @ # $ % & * = - ; > , ' ) ! ~ { ] ^ / ( _ : < [ } | 1 2 3 4 5 6 7 8 9 0 a b g   ",
"  j k i                                                                                 0 a b   ",
"l m j                                                                                     0 a n ",
"o p m                                                                                     9 0 a ",
"q r p                                           ) ! ~ { ] ^                               8 9 0 ",
"s q r                                           ' ) ! ~ { ]                               7 8 9 ",
"t s q                                           , ' ) ! ~ {                               6 7 8 ",
"u t s                                           > , ' ) ! ~                               5 6 7 ",
"v u t                                           ; > , ' ) !                               4 5 6 ",
"w v u                                           - ; > , ' )                               3 4 5 ",
"x w v                   i c d e f +             = - ; > , '                               2 3 4 ",
"y x w                   k i c d e f             * = - ; > ,                               1 2 3 ",
"z y x                   j k i c d e             & * = - ; >                               | 1 2 ",
"A z y                   m j k i c d             % & * = - ; > , ' ) ! ~                   } | 1 ",
"B A z                   p m j k i c             $ % & * = - ; > , ' ) !                   [ } | ",
"C B A                   r p m j k i             # $ % & * = - ; > , ' )                   < [ } ",
"D C B                   q r p m j k i c d e f + @ # $ % & * = - ; > , '                   : < [ ",
"E D C                   s q r p m j k i c d e f + @ # $ % & * = - ; > ,                   _ : < ",
"F E D                   t s q r p m j k i c d e f + @ # $ % & * = - ; >                   ( _ : ",
"G F E D C B A z y x w v u t s q r p m j k i c d e f + @ # $ % & * = - ; > , ' ) ! ~ { ] ^ / ( _ ",
"H G F E D C B A z y x w v u t s q r p m j k i c d e f + @ # $ % & * = - ; > , ' ) ! ~ { ] ^ / ( ",
"I H G F E D C B A z y x w v u t s q r p m j k i c d e f + @ # $ % & * = - ; > , ' ) ! ~ { ] ^ / ",
"J I H G F E D C B A z y x w v u t s q r p m j k i c d e f + @ # $ % & * = - ; > , ' ) ! ~ { ] ^ ",
"K J I H G F E D C B A z y x w v u t s q r p m j k i c d e f + @ # $ % & * = - ; > , ' ) ! ~ { ] ",
"L K J I H G F E D C B A z y x w v u t s q r p m j k i c d e f + @ # $ % & * = - ; > , ' ) ! ~ { ",
"M L K                   A z y x w v u t s q r p m j k i c d e f + @ # $                   ) ! ~ ",
"N M L                   B A z y x w v u t s q r p m j k i c d e f + @ #                   ' ) ! ",
"O N M                   C B A z y x w v u t s q r p m j k i c d e f + @                   , ' ) ",
"P O N                   D C B A z y             q r p m j k i c d e f +                   > , ' ",
"Q P O                   E D C B A z             s q r p m j k i c d e f                   ; > , ",
"R Q P                   F E D C B A             t s q r p m j k i c d e                   - ; > ",
"S R Q                   G F E D C B             u t s q r p                               = - ; ",
"T S R                   H G F E D C             v u t s q r                               * = - ",
"U T S                   I H G F E D             w v u t s q                               & * = ",
"V U T                                           x w v u t s                               % & * ",
"W V U                                           y x w v u t                               $ % & ",
"X W V                                           z y x w v u                               # $ % ",
"Y X W                                           A z y x w v                               @ # $ ",
"Z Y X                                           B A z y x w                               + @ # ",
"` Z Y                                           C B A z y x                               f + @ ",
" .` Z                                                                                     e f ..",
"+. .`                                                                                     d e @.",
"  +. .`                                                                                 i c d   ",
"  #.+. .` Z Y X W V U T S R Q P O N M L K J I H G F E D C B A z y x w v u t s q r p m j k i c   ",
"    $.+. .` Z Y X W V U T S R Q P O N M L K J I H G F E D C B A z y x w v u t s q r p m j k     ",
"        +. .` Z Y X W V U T S R Q P O N M L K J I H G F E D C B A z y x w v u t s q o p         "};
