/* XPM */
static char * TenacityLogo48x48_xpm[] = {
"48 48 99 2",
"  	c None",
". 	c #7A6099",
"+ 	c #79619B",
"@ 	c #78629D",
"# 	c #76649F",
"$ 	c #7565A0",
"% 	c #7367A2",
"& 	c #7268A4",
"* 	c #706AA6",
"= 	c #6F6BA7",
"- 	c #6D6CA9",
"; 	c #6C6EAB",
"> 	c #6A6FAD",
", 	c #6971AE",
"' 	c #6772B0",
") 	c #6674B2",
"! 	c #6475B4",
"~ 	c #6376B6",
"{ 	c #6178B7",
"] 	c #6079B9",
"^ 	c #5E7BBB",
"/ 	c #5D7CBD",
"( 	c #5B7EBE",
"_ 	c #5A7FC0",
": 	c #5880C2",
"< 	c #5782C4",
"[ 	c #5583C5",
"} 	c #5485C7",
"| 	c #5286C9",
"1 	c #5088CB",
"2 	c #4F89CC",
"3 	c #4D8ACE",
"4 	c #4C8CD0",
"5 	c #4A8DD2",
"6 	c #498FD3",
"7 	c #4790D5",
"8 	c #4692D7",
"9 	c #4493D9",
"0 	c #4394DA",
"a 	c #4196DC",
"b 	c #4097DE",
"c 	c #805B94",
"d 	c #7E5D96",
"e 	c #7D5E98",
"f 	c #7B5F99",
"g 	c #3E99E0",
"h 	c #835791",
"i 	c #815A92",
"j 	c #84578F",
"k 	c #835891",
"l 	c #FFFFFF",
"m 	c #86548C",
"n 	c #86558D",
"o 	c #3F97DE",
"p 	c #89538B",
"q 	c #87548B",
"r 	c #8A5188",
"s 	c #89538A",
"t 	c #8C5086",
"u 	c #8D4E84",
"v 	c #8F4D83",
"w 	c #904B81",
"x 	c #924A7F",
"y 	c #93497D",
"z 	c #95477C",
"A 	c #96467A",
"B 	c #984478",
"C 	c #994376",
"D 	c #9B4174",
"E 	c #9C4073",
"F 	c #9E3F71",
"G 	c #9F3D6F",
"H 	c #A13C6D",
"I 	c #A33A6C",
"J 	c #A4396A",
"K 	c #A63768",
"L 	c #A73666",
"M 	c #A93565",
"N 	c #AA3363",
"O 	c #AC3261",
"P 	c #AD305F",
"Q 	c #AF2F5E",
"R 	c #B02D5C",
"S 	c #B22C5A",
"T 	c #B32A58",
"U 	c #B52957",
"V 	c #B62855",
"W 	c #B82653",
"X 	c #B92551",
"Y 	c #BB2350",
"Z 	c #BC224E",
"` 	c #BE204C",
" .	c #BF1F4A",
"..	c #C11E49",
"+.	c #79619A",
"@.	c #C21C47",
"#.	c #7C5F99",
"$.	c #C51B44",
"%.	c #C41C45",
"        . + @ # $ % & * = - ; > , ' ) ! ~ { ] ^ / ( _ : < [ } | 1 2 3 4 5 6 7 8 9 0 a b         ",
"    c d e f + @ # $ % & * = - ; > , ' ) ! ~ { ] ^ / ( _ : < [ } | 1 2 3 4 5 6 7 8 9 0 a b g     ",
"  h i c d e f + @ # $ % & * = - ; > , ' ) ! ~ { ] ^ / ( _ : < [ } | 1 2 3 4 5 6 7 8 9 0 a b g   ",
"  j k i l l l l l l l l l l l l l l l l l l l l l l l l l l l l l l l l l l l l l l l l 0 a b   ",
"m n j l l l l l l l l l l l l l l l l l l l l l l l l l l l l l l l l l l l l l l l l l l 0 a o ",
"p q n l l l l l l l l l l l l l l l l l l l l l l l l l l l l l l l l l l l l l l l l l l 9 0 a ",
"r s q l l l l l l l l l l l l l l l l l l l l l ) ! ~ { ] ^ l l l l l l l l l l l l l l l 8 9 0 ",
"t r s l l l l l l l l l l l l l l l l l l l l l ' ) ! ~ { ] l l l l l l l l l l l l l l l 7 8 9 ",
"u t r l l l l l l l l l l l l l l l l l l l l l , ' ) ! ~ { l l l l l l l l l l l l l l l 6 7 8 ",
"v u t l l l l l l l l l l l l l l l l l l l l l > , ' ) ! ~ l l l l l l l l l l l l l l l 5 6 7 ",
"w v u l l l l l l l l l l l l l l l l l l l l l ; > , ' ) ! l l l l l l l l l l l l l l l 4 5 6 ",
"x w v l l l l l l l l l l l l l l l l l l l l l - ; > , ' ) l l l l l l l l l l l l l l l 3 4 5 ",
"y x w l l l l l l l l l i c d e f + l l l l l l = - ; > , ' l l l l l l l l l l l l l l l 2 3 4 ",
"z y x l l l l l l l l l k i c d e f l l l l l l * = - ; > , l l l l l l l l l l l l l l l 1 2 3 ",
"A z y l l l l l l l l l j k i c d e l l l l l l & * = - ; > l l l l l l l l l l l l l l l | 1 2 ",
"B A z l l l l l l l l l n j k i c d l l l l l l % & * = - ; > , ' ) ! ~ l l l l l l l l l } | 1 ",
"C B A l l l l l l l l l q n j k i c l l l l l l $ % & * = - ; > , ' ) ! l l l l l l l l l [ } | ",
"D C B l l l l l l l l l s q n j k i l l l l l l # $ % & * = - ; > , ' ) l l l l l l l l l < [ } ",
"E D C l l l l l l l l l r s q n j k i c d e f + @ # $ % & * = - ; > , ' l l l l l l l l l : < [ ",
"F E D l l l l l l l l l t r s q n j k i c d e f + @ # $ % & * = - ; > , l l l l l l l l l _ : < ",
"G F E l l l l l l l l l u t r s q n j k i c d e f + @ # $ % & * = - ; > l l l l l l l l l ( _ : ",
"H G F E D C B A z y x w v u t r s q n j k i c d e f + @ # $ % & * = - ; > , ' ) ! ~ { ] ^ / ( _ ",
"I H G F E D C B A z y x w v u t r s q n j k i c d e f + @ # $ % & * = - ; > , ' ) ! ~ { ] ^ / ( ",
"J I H G F E D C B A z y x w v u t r s q n j k i c d e f + @ # $ % & * = - ; > , ' ) ! ~ { ] ^ / ",
"K J I H G F E D C B A z y x w v u t r s q n j k i c d e f + @ # $ % & * = - ; > , ' ) ! ~ { ] ^ ",
"L K J I H G F E D C B A z y x w v u t r s q n j k i c d e f + @ # $ % & * = - ; > , ' ) ! ~ { ] ",
"M L K J I H G F E D C B A z y x w v u t r s q n j k i c d e f + @ # $ % & * = - ; > , ' ) ! ~ { ",
"N M L l l l l l l l l l B A z y x w v u t r s q n j k i c d e f + @ # $ l l l l l l l l l ) ! ~ ",
"O N M l l l l l l l l l C B A z y x w v u t r s q n j k i c d e f + @ # l l l l l l l l l ' ) ! ",
"P O N l l l l l l l l l D C B A z y x w v u t r s q n j k i c d e f + @ l l l l l l l l l , ' ) ",
"Q P O l l l l l l l l l E D C B A z l l l l l l r s q n j k i c d e f + l l l l l l l l l > , ' ",
"R Q P l l l l l l l l l F E D C B A l l l l l l t r s q n j k i c d e f l l l l l l l l l ; > , ",
"S R Q l l l l l l l l l G F E D C B l l l l l l u t r s q n j k i c d e l l l l l l l l l - ; > ",
"T S R l l l l l l l l l H G F E D C l l l l l l v u t r s q l l l l l l l l l l l l l l l = - ; ",
"U T S l l l l l l l l l I H G F E D l l l l l l w v u t r s l l l l l l l l l l l l l l l * = - ",
"V U T l l l l l l l l l J I H G F E l l l l l l x w v u t r l l l l l l l l l l l l l l l & * = ",
"W V U l l l l l l l l l l l l l l l l l l l l l y x w v u t l l l l l l l l l l l l l l l % & * ",
"X W V l l l l l l l l l l l l l l l l l l l l l z y x w v u l l l l l l l l l l l l l l l $ % & ",
"Y X W l l l l l l l l l l l l l l l l l l l l l A z y x w v l l l l l l l l l l l l l l l # $ % ",
"Z Y X l l l l l l l l l l l l l l l l l l l l l B A z y x w l l l l l l l l l l l l l l l @ # $ ",
"` Z Y l l l l l l l l l l l l l l l l l l l l l C B A z y x l l l l l l l l l l l l l l l + @ # ",
" .` Z l l l l l l l l l l l l l l l l l l l l l D C B A z y l l l l l l l l l l l l l l l f + @ ",
".. .` l l l l l l l l l l l l l l l l l l l l l l l l l l l l l l l l l l l l l l l l l l e f +.",
"@... .l l l l l l l l l l l l l l l l l l l l l l l l l l l l l l l l l l l l l l l l l l d e #.",
"  @... .l l l l l l l l l l l l l l l l l l l l l l l l l l l l l l l l l l l l l l l l i c d   ",
"  $.@... .` Z Y X W V U T S R Q P O N M L K J I H G F E D C B A z y x w v u t r s q n j k i c   ",
"    %.@... .` Z Y X W V U T S R Q P O N M L K J I H G F E D C B A z y x w v u t r s q n j k     ",
"        @... .` Z Y X W V U T S R Q P O N M L K J I H G F E D C B A z y x w v u t r p q         "};
