/* XPM */
static char * saucedacity16_xpm[] = {
"16 16 49 1",
" 	c None",
".	c #FFFFFF",
"+	c #FFFFFC",
"@	c #DEB27B",
"#	c #553B2E",
"$	c #282627",
"%	c #2A3444",
"&	c #5993C9",
"*	c #FBFFFF",
"=	c #FFE193",
"-	c #3B1444",
";	c #8FD2F0",
">	c #FDFFFE",
",	c #F7E8D0",
"'	c #B0BBD5",
")	c #FFBF6B",
"!	c #13277A",
"~	c #D2FFFF",
"{	c #FFF5C3",
"]	c #752B0F",
"^	c #183350",
"/	c #677A8F",
"(	c #A7C0DD",
"_	c #F3FFFF",
":	c #FFF8E6",
"<	c #CBB099",
"[	c #84705B",
"}	c #3B1D0C",
"|	c #1D57A7",
"1	c #E6FFFF",
"2	c #FFED9F",
"3	c #470538",
"4	c #90E4FF",
"5	c #FFE7D3",
"6	c #CCE4F8",
"7	c #FCDE8D",
"8	c #380549",
"9	c #A1F2FF",
"0	c #FFD08E",
"a	c #41231E",
"b	c #25333E",
"c	c #444235",
"d	c #211B29",
"e	c #5798D2",
"f	c #FAFFFF",
"g	c #FFFFFB",
"h	c #F4EAE2",
"i	c #DEE1E9",
"j	c #F3FBFF",
"     ......     ",
"   ..........   ",
"  ............  ",
" .............. ",
" ....+@#$%&*... ",
".....=-;>,'*....",
".....)!~........",
".....{]^/(_.....",
"......:<[}|1....",
".........234....",
".....56..789....",
" ....0abcdef... ",
" .....ghij..... ",
"  ............  ",
"   ..........   ",
"     ......     "};
